{"title":"Our.Brand.Is.Crisis.2015.BRRip.480p.x264.AAC-VYTO [P2PDL]","uid":13296704,"size":413062925,"categoryP":"video","categoryS":"movies","magnet":"?xt=urn:btih:1600fe91dc5d92b431d869eee6fc59b8590d7418&amp;dn=Our.Brand.Is.Crisis.2015.BRRip.480p.x264.AAC-VYTO+%5BP2PDL%5D&amp;tr=udp%3A%2F%2Ftracker.leechers-paradise.org%3A6969&amp;tr=udp%3A%2F%2Fzer0day.ch%3A1337&amp;tr=udp%3A%2F%2Fopen.demonii.com%3A1337&amp;tr=udp%3A%2F%2Ftracker.coppersurfer.tk%3A6969&amp;tr=udp%3A%2F%2Fexodus.desync.com%3A6969","seeders":0,"leechers":3,"uploader":"VYTOP2PDL","files":7,"time":1453643309,"description":"Our.Brand.Is.Crisis.2015.BRRip.480p.x264.AAC-VYTO\r\n\r\n\r\nGenre: Comedy, Drama   \nhttp://www.imdb.com/title/tt1018765/\r\n\r\n\r\n\r\nFormat                                   : MPEG-4\r\nFile size                                : 386 MiB\r\nDuration                                 : 1h 47mn\r\nOverall bit rate                         : 502 Kbps\r\n\r\nVideo\r\nFormat                                   : AVC\r\nBit rate                                 : 468 Kbps\r\nWidth                                    : 720 pixels\r\nHeight                                   : 400 pixels\r\nDisplay aspect ratio                     : 16:9\r\nFrame rate mode                          : Constant\r\nFrame rate                               : 23.976 fps\r\nBit depth                                : 8 bits\r\nStream size                              : 359 MiB (93%)\r\nWriting library                          : x264\r\n\r\nAudio\r\nFormat                                   : AAC\r\nBit rate mode                            : Variable\r\nBit rate                                 : 32.0 Kbps\r\nChannel(s)                               : 2 channels\r\nChannel positions                        : Front: L R\r\nSampling rate                            : 48.0 KHz\r\nStream size                              : 24.6 MiB (6%)\r\nLanguage                                 : English\r\n\r\nSubtitle                                 : Yes (English)\r\n\r\nScreen Shots: (Click to view)\r\n \nhttp://ititli.com/O9 \nhttp://ititli.com/OX \nhttp://ititli.com/Oq \nhttp://ititli.com/Or \nhttp://ititli.com/O1 \nhttp://ititli.com/OT \nhttp://ititli.com/OW \nhttp://ititli.com/Og \nhttp://ititli.com/On \nhttp://ititli.com/Ow \nhttp://ititli.com/O2 \nhttp://ititli.com/O6\r\n\r\n----------------------------------------------------------------------------------------------------\r\n\r\n\r\nEncoder Notes: Looking For Early Access To Anything You Can Provide WEBDL, DVDScr, DVDR, BluRay,\r\nDirect Audio, Music Releases and Seedboxes. If You Got anything to offer please contact us.\r\n\r\nSupport us by donating BC - 1FgwdzPsd1y25Gea8wP1qni35uGCtmkRCD\r\n\r\nSend some love!\r\nFind us and join us!","torrent":{"xt":"urn:btih:1600fe91dc5d92b431d869eee6fc59b8590d7418","amp;dn":"Our.Brand.Is.Crisis.2015.BRRip.480p.x264.AAC-VYTO+%5BP2PDL%5D","amp;tr":["udp%3A%2F%2Ftracker.leechers-paradise.org%3A6969","udp%3A%2F%2Fzer0day.ch%3A1337","udp%3A%2F%2Fopen.demonii.com%3A1337","udp%3A%2F%2Ftracker.coppersurfer.tk%3A6969","udp%3A%2F%2Fexodus.desync.com%3A6969"],"infoHash":"1600fe91dc5d92b431d869eee6fc59b8590d7418","infoHashBuffer":{"type":"Buffer","data":[22,0,254,145,220,93,146,180,49,216,105,238,230,252,89,184,89,13,116,24]},"announce":[],"urlList":[]}}